<svg id="f0c52319-f2b7-440b-8dfc-25db6335ae3e" data-name="Layer 1" xmlns="http://www.w3.org/2000/svg" viewBox="0 0 18.98 22.03"><defs><style>.bfb94a13-073d-4852-bd38-929a50d29e2f{fill:#04c2c9;}</style></defs><path class="bfb94a13-073d-4852-bd38-929a50d29e2f" d="M19,21V7H8V21ZM19,5a2,2,0,0,1,1.41.58A1.84,1.84,0,0,1,21,7V21a1.93,1.93,0,0,1-.61,1.41A2,2,0,0,1,19,23H8a1.93,1.93,0,0,1-1.4-.61A1.93,1.93,0,0,1,6,21V7A1.84,1.84,0,0,1,6.61,5.6,1.94,1.94,0,0,1,8,5ZM16,1V3H4V17H2V3A2,2,0,0,1,2.6,1.59,1.88,1.88,0,0,1,4,1Z" transform="translate(-2.02 -0.98)"/></svg>