<svg id="e7bdbf3c-4d1e-4dc7-94bc-66ab0408e295" data-name="Layer 1" xmlns="http://www.w3.org/2000/svg" viewBox="0 0 32 32"><defs><style>.b652e8e6-cbfe-466f-ac2e-b0bf3e056507{fill:#d2d3db;}</style></defs><path class="b652e8e6-cbfe-466f-ac2e-b0bf3e056507" d="M30.83,1.17a4,4,0,0,0-5.66,0L19.79,6.55,16,2.76,11.76,7l3.32,3.33L.33,25.08A1.11,1.11,0,0,0,0,26H0v5a1,1,0,0,0,1,1H6.13a1.12,1.12,0,0,0,.79-.33L21.67,16.92,25,20.24,29.24,16l-3.79-3.79,5.38-5.38a4,4,0,0,0,0-5.66ZM5.41,30H2V26.59L16.68,11.92l3.41,3.41Z"/></svg>